<svg width="1000" height="1001" viewBox="0 0 1000 1001" fill="none" xmlns="http://www.w3.org/2000/svg">
<path d="M1000 619.853V989.559H785.668V644.613C785.668 557.96 754.667 498.823 677.086 498.823C617.862 498.823 582.618 538.677 567.113 577.229C561.459 591.012 560.003 610.195 560.003 629.487V989.559H345.599C345.599 989.559 348.487 405.334 345.599 344.804H559.983V436.196C559.548 436.879 558.983 437.616 558.574 438.279H559.983V436.196C588.465 392.326 639.333 329.657 753.19 329.657C894.252 329.655 1000 421.809 1000 619.853ZM121.323 34.0005C47.9753 34.0005 0 82.1107 0 145.377C0 207.265 46.5873 256.835 118.477 256.835H119.909C194.677 256.835 241.176 207.274 241.176 145.377C239.767 82.1107 194.677 34.0005 121.323 34.0005ZM12.7337 989.559H227.057V344.804H12.7337V989.559Z" fill="#414141"/>
</svg>
